<?xml version="1.0" encoding="UTF-8"?>
<svg version="1.1" viewBox="0 0 20 13" xmlns="http://www.w3.org/2000/svg" xmlns:xlink="http://www.w3.org/1999/xlink">
    <!--Generated by IJSVG (https://github.com/curthard89/IJSVG)-->
    <g transform="translate(-60, -103)">
        <g fill="#ffffff" fill-rule="evenodd" stroke="none" stroke-width="1">
            <path d="M12.981,2.11726h5.088v-1.4573h-5.088v1.4573Zm2.508,2.92595c-1.135,0 -1.997,0.703345 -2.08,2.00262h4.072c-0.276,-1.54199 -0.961,-2.00262 -1.992,-2.00262v0Zm0.159,6.02646c1.048,0 1.817,-0.662032 1.974,-1.21975h2.204c-0.63,2.01708 -1.931,3.15008 -4.267,3.15008c-2.981,0 -4.654,-2.12036 -4.654,-4.93374c0,-6.62549 9.56,-6.86303 9.08,0.618654h-6.576c0.064,1.51927 0.691,2.38476 2.239,2.38476v0Zm-9.918,-0.291253c1.203,0 2.045,-0.462699 2.045,-1.71137c0,-1.29515 -0.744,-1.85699 -1.993,-1.85699h-3.014v3.56836h2.962Zm-0.159,-5.51625c1.001,0 1.692,-0.465798 1.692,-1.54818c0,-1.14022 -0.804,-1.49241 -1.903,-1.49241h-2.592v3.0406h2.803v0Zm0.353,-5.26217c2.371,0 4.019,0.783904 4.019,3.22237c0,1.20736 -0.485,2.10694 -1.71,2.7132c1.568,0.465798 2.31,1.68865 2.31,3.2957c0,2.55105 -2.023,3.76873 -4.443,3.76873h-6.1v-13h5.924Z" transform="translate(60, 103)"></path>
        </g>
    </g>
</svg>