<?xml version="1.0" encoding="UTF-8"?>
<svg version="1.1" viewBox="0 0 20 20" xmlns="http://www.w3.org/2000/svg" xmlns:xlink="http://www.w3.org/1999/xlink">
    <!--Generated by IJSVG (https://github.com/curthard89/IJSVG)-->
    <g transform="translate(-140, -60)">
        <g fill="#ffffff" fill-rule="evenodd" stroke="none" stroke-width="1">
            <path d="M13.12,13.4196c0.68,1.97014 1.14,3.99421 1.38,6.0712c2.091,-1.34805 3.51,-3.56483 3.78,-6.0712c-2.027,-0.138799 -3.388,-0.126816 -5.16,0m-1.18,-3.01563c0.2,0.426382 0.427,0.965601 0.68,1.61766c1.821,-0.171751 3.853,-0.169754 5.68,-0.0798842c-0.107,-1.81038 -0.76,-3.42204 -1.96,-4.833c-0.867,1.29113 -2.333,2.38954 -4.4,3.29522m-3.98,-5.95137c1.173,1.21124 2.26,2.72305 3.26,4.53343c1.813,-0.7589 3.18,-1.7245 4.1,-2.8958c-2.231,-1.84333 -4.98,-2.28968 -7.36,-1.63763m-3.06,14.6188c2.4,1.8663 5.376,2.21878 8.04,1.19826c-0.267,-2.2767 -0.787,-4.48051 -1.56,-6.61042c-2.6,0.564182 -5.345,3.1714 -6.48,5.41216m-2.98,-8.6275c1.17,0.105847 4.368,0.121823 7.64,-0.858755c-1.013,-1.7974 -2.127,-3.29522 -3.34,-4.49349c-2.147,1.08543 -3.696,3.09751 -4.3,5.35224m1.84,7.54906c1.252,-2.44845 4.365,-5.1046 7.1,-5.71172c-0.2,-0.466324 -0.393,-0.885716 -0.58,-1.25818c-2.772,0.885716 -5.932,1.21823 -8.6,1.07844c0,2.13091 0.349,3.9323 2.08,5.89146m-3.76,-5.49204c0,-3.74757 2.008,-6.91797 4.98,-8.64747c6.623,-3.85342 15.02,0.91767 15.02,8.64747c0,3.74757 -2.008,6.91797 -4.98,8.64747c-3.072,1.78741 -6.959,1.7924 -10.04,0c-2.975,-1.73049 -4.98,-4.90289 -4.98,-8.64747" transform="translate(140, 57.5092)"></path>
        </g>
    </g>
</svg>