<?xml version="1.0" encoding="UTF-8"?>
<svg version="1.1" viewBox="0 0 20 20" xmlns="http://www.w3.org/2000/svg" xmlns:xlink="http://www.w3.org/1999/xlink">
    <!--Generated by IJSVG (https://github.com/curthard89/IJSVG)-->
    <g transform="translate(-140, -100)">
        <g fill="#212529" fill-rule="evenodd" stroke="none" stroke-width="1">
            <path id="linkedin" d="M20,20h-4v-6.999c0,-1.92 -0.847,-2.991 -2.366,-2.991c-1.653,0 -2.634,1.116 -2.634,2.991v6.999h-4v-13h4v1.462c0,0 1.255,-2.202 4.083,-2.202c2.829,0 4.917,1.726 4.917,5.298v8.442v0Zm-17.558,-15.079c-1.349,0 -2.442,-1.102 -2.442,-2.461c0,-1.358 1.093,-2.46 2.442,-2.46c1.348,0 2.441,1.102 2.441,2.46c0.001,1.359 -1.093,2.461 -2.441,2.461v0Zm-2.442,15.079h5v-13h-5v13Z" transform="translate(140, 100)"></path>
        </g>
    </g>
</svg>