<?xml version="1.0" encoding="UTF-8"?>
<svg version="1.1" viewBox="0 0 20 17" xmlns="http://www.w3.org/2000/svg" xmlns:xlink="http://www.w3.org/1999/xlink">
    <!--Generated by IJSVG (https://github.com/curthard89/IJSVG)-->
    <g transform="translate(-220, -141)">
        <g fill="#ffffff" fill-rule="evenodd" stroke="none" stroke-width="1">
            <path d="M8,5.46048v5.87058l5.333,2.6123l-5.333,-8.48289Zm11.856,-2.19633l-6.337,-3.09777c-0.103,-0.053831 -0.234,-0.013702 -0.296,0.081237l-3.663,5.82752l4.359,6.93156l5.998,-9.53407c0.049,-0.074385 0.014,-0.168346 -0.061,-0.208475Zm-5.624,11.1118l5.218,2.55064c0.302,0.148771 0.55,0 0.55,-0.336693v-11.382l-5.768,9.16802Zm-7.232,-11.2978v13.5186c0,0.329842 -0.414,0.641086 -0.717,0.492315l-6.283,-3.24458v-13.3679c0,-0.223156 0.229,-0.476654 0.635,-0.276988l6.365,2.87852Z" transform="translate(220, 140.873)"></path>
        </g>
    </g>
</svg>