<?xml version="1.0" encoding="UTF-8"?>
<svg version="1.1" viewBox="0 0 20 16" xmlns="http://www.w3.org/2000/svg" xmlns:xlink="http://www.w3.org/1999/xlink">
    <!--Generated by IJSVG (https://github.com/curthard89/IJSVG)-->
    <g transform="translate(-20, -142)">
        <g fill="#212529" fill-rule="evenodd" stroke="none" stroke-width="1">
            <path id="twitter" d="M6.29,16.432c7.547,0 11.675,-6.15635 11.675,-11.4945c0,-0.175248 0,-0.349512 -0.012,-0.522792c0.803,-0.571035 1.496,-1.27991 2.047,-2.09117c-0.748,0.326868 -1.543,0.541499 -2.356,0.636015c0.856,-0.505071 1.497,-1.29861 1.804,-2.23491c-0.806,0.470612 -1.687,0.802403 -2.606,0.980605c-1.554,-1.62647 -4.153,-1.70523 -5.806,-0.175249c-1.065,0.986512 -1.518,2.45742 -1.187,3.86039c-3.299,-0.163434 -6.373,-1.69735 -8.457,-4.22073c-1.089,1.84602 -0.532,4.20695 1.271,5.39234c-0.653,-0.018706 -1.292,-0.191986 -1.863,-0.50507v0.051196c0.001,1.92281 1.378,3.57881 3.292,3.95983c-0.604,0.162449 -1.238,0.186078 -1.852,0.068918c0.537,1.64615 2.078,2.77346 3.833,2.80595c-1.453,1.12435 -3.248,1.73476 -5.096,1.73279c-0.326,-0.000984 -0.652,-0.01969 -0.977,-0.058088c1.877,1.18539 4.06,1.81451 6.29,1.81156" transform="translate(20, 141.568)"></path>
        </g>
    </g>
</svg>